PathFileType	4	(X/Y/Z)	C:/Users/opensim2020/Desktop/walking_exp_matlab/subject02_walking04_straight_01.trc																																																																																																																												
DataRate	CameraRate	NumFrames	NumMarkers	Units	OrigDataRate	OrigDataStartFrame	OrigNumFrames																																																																																																																								
100	100	7	42	mm	100	953	302																																																																																																																								
Frame#	Time	LFHD			RFHD			LBHD			RBHD			C7			T10			CLAV			STRN			RBAK			LSHO			LUPA			LELB			LFRM			LWRA			LWRB			LFIN			RSHO			RUPA			RELB			RFRM			RWRA			RWRB			RFIN			LASI			RASI			LPSI			RPSI			LTHI			LKNE			LTIB			LANK			LHEE			LTOE			RTHI			RKNE			RTIB			RANK			RHEE			RTOE			*39			*40			*41		
		X1	Y1	Z1	X2	Y2	Z2	X3	Y3	Z3	X4	Y4	Z4	X5	Y5	Z5	X6	Y6	Z6	X7	Y7	Z7	X8	Y8	Z8	X9	Y9	Z9	X10	Y10	Z10	X11	Y11	Z11	X12	Y12	Z12	X13	Y13	Z13	X14	Y14	Z14	X15	Y15	Z15	X16	Y16	Z16	X17	Y17	Z17	X18	Y18	Z18	X19	Y19	Z19	X20	Y20	Z20	X21	Y21	Z21	X22	Y22	Z22	X23	Y23	Z23	X24	Y24	Z24	X25	Y25	Z25	X26	Y26	Z26	X27	Y27	Z27	X28	Y28	Z28	X29	Y29	Z29	X30	Y30	Z30	X31	Y31	Z31	X32	Y32	Z32	X33	Y33	Z33	X34	Y34	Z34	X35	Y35	Z35	X36	Y36	Z36	X37	Y37	Z37	X38	Y38	Z38	X39	Y39	Z39	X40	Y40	Z40	X41	Y41	Z41	X42	Y42	Z42
																																																																																																																															
227	2.26	418.52481	1747.07629	-1144.98584	416.94867	1729.69507	-1001.53955	298.44669	1656.03821	-1156.07446	284.95352	1636.31677	-1014.33917	250.4545	1523.05835	-1074.46021	198.3515	1246.86877	-1062.78223	388.5625	1453.68311	-1094.76257	442.60724	1283.72498	-1084.90894	199.23799	1350.6322	-1000.95703	310.76282	1489.94495	-1260.82141	291.64484	1285.82983	-1341.98999	284.61282	1146.40186	-1353.12537	288.80383	1015.68451	-1368.76868	338.59665	887.4599	-1340.74341	293.51202	893.53265	-1374.39819	309.47467	829.06842	-1380.51208	345.63773	1494.60791	-894.57446	331.42337	1304.29956	-805.45221	352.89633	1157.1145	-792.474	395.3497	1042.44849	-781.58337	454.96866	923.70154	-811.02344	411.82358	913.25348	-775.17664	457.07925	856.86322	-777.87396	440.95343	1000.25433	-1213.25952	440.28696	967.92346	-957.52234	228.46155	1029.69678	-1130.29382	224.76187	1022.78076	-1014.9906	412.97366	688.16022	-1269.35583	406.30374	483.70432	-1238.17261	365.45508	291.83643	-1236.11841	383.74542	71.03748	-1197.12085	350.46515	42.99016	-1145.27136	541.09906	37.07187	-1210.69604	368.36072	663.99127	-875.86194	373.17703	465.28827	-881.77325	224.53897	357.60413	-881.44379	82.14202	230.1391	-918.3822	31.31004	211.28151	-983.0105	132.66002	77.44324	-888.08087	306.78372	1799.91797	-1058.42529	2845.73706	1033.90259	-3357.46875	NaN	NaN	NaN
228	2.27	427.42358	1748.51697	-1146.6792	425.88467	1731.26074	-1003.24786	307.65448	1657.26001	-1157.63562	293.49326	1637.68091	-1016.64764	259.8187	1524.51453	-1076.48071	207.07648	1248.48474	-1065.31824	397.87927	1454.90161	-1096.09827	451.54428	1284.76379	-1086.23413	208.01796	1352.02295	-1003.62402	321.63315	1491.44568	-1262.94019	305.44998	1287.13489	-1344.58557	300.56726	1147.66174	-1356.74463	307.81604	1016.92102	-1372.09668	359.922	889.95624	-1343.1521	315.15231	894.85852	-1377.4386	332.96042	831.11035	-1383.64722	354.12155	1495.62866	-895.90094	338.27884	1305.30359	-807.27655	358.59332	1157.9502	-794.59406	399.53387	1042.87708	-783.53339	457.62408	923.05298	-812.9549	414.40625	913.31537	-776.83197	458.46664	856.04285	-779.86426	449.34567	1000.12421	-1214.76904	448.11789	969.78436	-958.08313	236.96092	1031.12183	-1132.71191	232.50349	1024.63232	-1017.7207	417.65427	688.15338	-1269.98047	408.513	483.62424	-1238.75891	366.4082	292.06387	-1236.21094	383.78659	71.08994	-1196.99573	350.28036	43.13635	-1145.2771	541.14301	37.04409	-1210.75842	382.78098	666.04504	-877.28723	391.21359	467.8038	-883.93689	243.65269	359.32101	-884.64441	103.09727	229.6651	-921.82318	52.92344	208.22752	-986.63464	156.70932	79.62818	-887.04456	315.40714	1801.1532	-1060.15454	2845.08691	1033.79089	-3360.19189	NaN	NaN	NaN
229	2.28	436.36206	1749.84131	-1148.18347	434.51169	1732.48767	-1005.15143	316.70868	1658.24963	-1159.30115	302.97577	1638.84106	-1017.78076	269.1792	1525.89502	-1078.44495	215.91954	1249.95007	-1067.83105	407.12494	1456.03137	-1097.38013	460.4599	1285.71912	-1087.56396	216.72557	1353.29785	-1006.25574	332.24857	1492.87817	-1264.66357	319.25177	1288.61938	-1347.13806	316.64081	1148.92957	-1360.05969	327.06644	1018.3382	-1375.5116	381.47803	892.9364	-1345.61267	337.01102	896.34851	-1380.29236	356.66663	833.40149	-1386.58826	362.38705	1496.54883	-897.55444	344.80942	1306.49207	-809.18304	364.05658	1158.6261	-796.64972	403.82184	1043.34668	-785.56781	460.16177	922.57703	-814.80334	416.90948	913.49005	-778.66412	460.01416	855.44727	-781.82526	457.76666	1000.01227	-1216.22266	455.96741	971.84564	-958.72437	245.42513	1032.45251	-1135.00488	240.2798	1026.3042	-1020.27747	422.47534	688.09967	-1270.83777	410.51465	483.61072	-1239.23535	367.07382	292.35815	-1236.25305	383.85379	71.17694	-1196.81702	350.27829	43.37917	-1145.03491	541.19928	36.96792	-1210.81848	397.08737	668.20544	-878.57721	409.23059	470.2601	-886.04492	262.65585	360.43256	-887.72827	124.81783	228.00888	-924.92908	74.73875	204.14104	-989.92285	181.68367	80.71219	-886.98218	324.14453	1802.14673	-1061.87683	2845.86768	1033.76709	-3357.43262	NaN	NaN	NaN
230	2.29	445.28671	1751.09229	-1149.56689	443.40848	1733.73071	-1006.49329	325.91168	1659.32861	-1160.6123	312.34351	1639.58948	-1018.97882	278.46432	1527.14063	-1080.29993	224.6904	1251.31274	-1070.31079	416.33261	1457.09998	-1098.59973	469.33203	1286.59534	-1088.89429	225.39958	1354.37036	-1008.86584	342.87878	1494.47021	-1266.26355	333.24347	1290.38245	-1349.75195	332.77173	1150.44336	-1363.32312	346.19632	1020.021	-1378.29993	402.98318	896.05548	-1347.74731	359.00616	898.30377	-1383.14392	380.71713	836.26563	-1389.479	370.86774	1497.45703	-898.93738	351.7135	1307.60449	-810.92975	369.80954	1159.67261	-798.42761	407.87265	1043.6582	-787.27295	462.68762	922.2251	-816.57727	419.29562	913.60236	-780.34882	461.91354	854.95374	-783.70673	466.00168	999.96112	-1217.71045	463.71194	974.0672	-959.54541	253.78432	1033.70471	-1137.0304	248.14496	1027.69653	-1022.65112	427.28329	687.92896	-1271.56824	412.30331	483.61087	-1239.70972	367.45282	292.71655	-1236.10681	383.84778	71.26666	-1196.6322	350.37775	43.28075	-1144.96851	541.20642	36.90442	-1210.98364	411.20816	670.38098	-879.77423	426.63129	472.75143	-888.37836	281.77515	360.85715	-890.75073	146.59962	225.21997	-928.08527	97.14639	199.07303	-992.71356	207.97614	81.1304	-886.96179	332.83252	1803.30798	-1063.47205	2845.07935	1033.79272	-3360.21777	NaN	NaN	NaN
231	2.3	454.24863	1752.21863	-1150.86731	452.47708	1735.02966	-1007.48517	335.00168	1660.05603	-1161.99854	321.41754	1640.43396	-1020.28516	287.70752	1528.24866	-1082.245	233.41202	1252.55017	-1072.79797	425.51276	1458.06335	-1099.8208	477.65326	1287.14087	-1090.14526	234.04391	1355.39026	-1011.43176	353.25046	1495.85901	-1267.6897	346.8848	1292.12732	-1351.90344	349.01559	1152.08728	-1366.18872	365.41943	1022.06366	-1381.1803	424.66306	899.47778	-1349.80908	381.13754	900.61981	-1385.88123	404.5531	839.14874	-1391.86414	379.19992	1498.19104	-900.4566	358.63776	1308.67383	-812.36786	375.34174	1160.55005	-800.10583	411.97299	1044.01074	-789.45367	465.70236	922.07208	-818.43665	422.1774	913.96362	-782.08746	463.68332	854.8017	-785.76245	474.0527	999.93457	-1219.20813	471.62946	976.44678	-960.59363	262.04318	1034.90723	-1138.85876	256.13916	1028.82886	-1024.67273	431.07385	687.68445	-1272.06348	414.04102	483.59503	-1240.11682	367.68875	293.04404	-1235.84241	383.86371	71.35255	-1196.44666	350.37515	43.31736	-1144.81189	541.19452	36.84467	-1211.15637	424.92447	672.47662	-880.8894	443.28833	475.29016	-890.47595	300.85321	360.56906	-893.677	169.19656	221.36646	-930.8479	120.45941	192.33304	-995.4906	235.34016	80.88242	-887.16449	341.85233	1804.09216	-1064.59534	2845.87891	1033.73694	-3357.4458	NaN	NaN	NaN
232	2.31	463.20917	1753.04907	-1151.78687	461.35999	1735.96985	-1008.51404	344.28888	1660.93469	-1163.27576	330.46664	1641.14893	-1021.65448	296.88712	1529.2157	-1084.12659	242.04416	1253.68066	-1075.21082	434.64893	1458.90894	-1101.02039	486.67999	1287.87134	-1091.50696	242.62183	1356.323	-1014.24097	363.43213	1497.2561	-1269.01465	360.39728	1294.06567	-1354.11072	364.95831	1154.04639	-1369.41064	384.79584	1024.47778	-1384.49658	446.23792	903.23975	-1351.73499	403.33566	903.23779	-1388.57617	428.54675	842.73853	-1394.47693	387.50351	1498.86853	-901.9115	365.32458	1309.53699	-814.04993	380.80655	1161.28979	-801.64185	416.13126	1044.42188	-790.75482	468.32953	921.89496	-820.24542	424.78842	914.1944	-783.81134	465.92322	854.54779	-787.45374	481.95535	1000.02155	-1220.95923	479.85461	978.80127	-961.91187	270.18417	1035.89539	-1140.35266	264.27328	1029.79419	-1026.33862	435.49771	687.37762	-1272.729	415.81509	483.59995	-1240.40381	368.10376	293.39453	-1235.63672	383.94434	71.533	-1196.28821	350.40311	43.48365	-1144.59473	541.21552	36.82943	-1211.33972	438.57748	674.52533	-881.99133	460.12241	477.62692	-892.67212	319.89291	359.59421	-896.66071	192.209	216.73209	-933.6037	144.54401	185.10204	-997.8678	263.59781	79.72739	-887.65051	350.66852	1804.84058	-1065.7959	2845.86865	1033.82727	-3357.40088	NaN	NaN	NaN
233	2.32	472.2952	1754.0741	-1152.91504	470.21765	1736.73889	-1009.44177	353.47757	1661.58997	-1164.38574	339.59042	1641.62451	-1022.79144	305.96402	1529.90845	-1085.9259	250.69765	1254.77234	-1077.52783	443.75998	1459.61816	-1102.11621	495.25143	1288.31738	-1092.77966	251.20168	1357.13379	-1016.30566	373.62491	1498.58655	-1270.27649	373.70834	1296.08594	-1356.18054	381.026	1156.01013	-1372.06482	403.93439	1026.7085	-1386.74341	467.84827	907.28101	-1353.58459	425.51666	906.18976	-1391.06274	452.57651	846.21521	-1396.50378	395.70486	1499.63538	-903.32324	372.49683	1310.4491	-815.28491	386.15811	1162.04529	-803.08093	420.51218	1044.94006	-792.39026	471.36685	921.82068	-822.02911	428.09732	914.56598	-785.31537	468.33453	854.48346	-789.28882	489.62097	1000.17468	-1222.66467	487.9213	980.91681	-963.52911	278.17523	1036.71326	-1141.55408	272.47864	1030.59656	-1027.53613	439.67413	687.02332	-1273.12378	417.84546	483.6304	-1240.72437	368.8671	293.68048	-1235.56702	384.05087	71.66118	-1196.08911	350.52127	43.62842	-1144.39429	541.28448	36.79198	-1211.46509	451.81656	676.50928	-883.05969	476.35822	479.87131	-894.75787	339.20761	357.9744	-899.38861	216.17226	210.98259	-935.92883	169.54851	177.0304	-999.99377	292.63947	77.88083	-888.36859	359.36288	1805.32422	-1066.92371	2845.08423	1033.80054	-3360.19922	NaN	NaN	NaN
